<svg xmlns="http://www.w3.org/2000/svg" width="512" height="512" viewBox="0 0 512 512" style="overflow: visible;" data-svgdocument="" id="_lozZXmrQ4Bjc2v8Jjk5tP" class="fl-svgdocument" x="0" y="0" overflow="hidden"><defs id="_OCOhh_n_vN0Rio0Fz3bQR" transform="matrix(0.7754893344140974, 0, 0, 0.7754893344140974, -81.92650430207993, 101.79068281867556)" data-uid="o_fea2f3b41_21"><linearGradient id="o_fea2f3b41_19" x1="0" y1="0.5" x2="1" y2="0.5" data-uid="o_fea2f3b41_22"><stop id="_BHsq4p1qAd5KargPr_mGY" offset="0%" stop-color="rgb(255, 192, 74)" data-uid="o_fea2f3b41_23"></stop><stop id="_Fil-3fkmygADUM_R7pzLf" offset="100%" stop-color="rgb(255, 99, 71)" data-uid="o_fea2f3b41_24"></stop></linearGradient></defs><path id="_tMLbDoPeHYDf8vvgFsJ3A" fill="url(#o_fea2f3b41_19)" d="M96.897 37.513c1.921 0 3.478-1.558 3.478-3.479c0-1.92-1.557-3.478-3.478-3.478s-3.478 1.558-3.478 3.478  c0 0.422 0.079 0.825 0.217 1.2l-10.153 8.649l-12.864-7.567c0.073-0.297 0.116-0.607 0.116-0.927c0-2.142-1.736-3.878-3.878-3.878  c-0.869 0-1.668 0.289-2.314 0.772L52.92 23.054c0.054-0.22 0.086-0.448 0.086-0.684c0-1.581-1.281-2.861-2.861-2.861  s-2.861 1.281-2.861 2.861c0 0.729 0.275 1.393 0.724 1.898l-5.835 12.488c-0.26-0.045-0.526-0.074-0.8-0.074  c-0.86 0-1.662 0.239-2.351 0.647l-15.438-6.915c0.036-0.225 0.06-0.454 0.06-0.689c0-2.38-1.929-4.309-4.309-4.309  c-2.379 0-4.309 1.929-4.309 4.309s1.929 4.309 4.309 4.309c1.352 0 2.556-0.623 3.346-1.596l14.682 6.576  c-0.384 0.674-0.607 1.452-0.607 2.284c0 0.852 0.293 1.605 0.694 2.29l-8.233 8.237c-1.136-0.811-2.506-1.294-4.003-1.294  c-2.642 0-4.915 1.501-6.082 3.684l-0.096-0.032c-0.001 0.012-0.004 0.023-0.005 0.035L7.553 49.002  c0.016-0.134 0.025-0.271 0.025-0.409c0-1.989-1.612-3.601-3.601-3.601s-3.601 1.612-3.601 3.601s1.612 3.601 3.601 3.601  c1.054 0 1.999-0.455 2.657-1.177l11.723 5.329c-0.005 0.013-0.009 0.025-0.015 0.037l0.056 0.019  c-0.054 0.348-0.108 0.694-0.108 1.055c0 1.954 0.813 3.716 2.115 4.975l-0.017 0.013c0.004 0.005 0.008 0.01 0.012 0.014  l-5.973 8.802c-0.155-0.027-0.314-0.044-0.478-0.044c-1.479 0-2.678 1.198-2.678 2.678c0 1.479 1.199 2.678 2.678 2.678  c1.479 0 2.678-1.199 2.678-2.678c0-0.501-0.14-0.969-0.38-1.37l5.364-7.904l0.71-0.877c0.881 0.407 1.859 0.641 2.894 0.641  c1.902 0 3.629-0.771 4.883-2.016l6.993 4.991c-0.199 0.514-0.334 1.06-0.334 1.641c0 2.548 2.065 4.617 4.617 4.617  c2.159 0 3.965-1.483 4.471-3.482l15.916-4.923c0.977 1.815 2.893 3.05 5.099 3.05c1.273 0 2.447-0.417 3.403-1.114l7.12 6.611  c-0.038 0.193-0.059 0.393-0.059 0.597c0 1.734 1.406 3.14 3.14 3.14s3.139-1.405 3.139-3.14c0-1.733-1.405-3.139-3.139-3.139  c-0.707 0-1.358 0.236-1.883 0.631l-6.811-6.323c0.552-0.887 0.893-1.93 0.893-3.05c0-2.815-1.661-5.16-4.661-5.677V39.104  c1-0.172 1.082-0.478 1.513-0.878l13.332 7.848l11.179 15.655c-0.092 0.23-0.146 0.481-0.146 0.745c0 1.125 0.91 2.037 2.035 2.037  s2.037-0.912 2.037-2.037s-0.913-2.037-2.038-2.037c-0.03 0-0.06 0.003-0.09 0.005L85.094 45.422l9.931-8.459  C95.565 37.31 96.207 37.513 96.897 37.513z M61.07 62.474c0 0.21 0.013 0.416 0.035 0.62l-15.275 4.724  c-0.522-1.975-2.316-3.435-4.458-3.435c-1.123 0-2.114 0.451-2.913 1.113l-7.038-5.022c0.447-0.92 0.717-1.93 0.717-3.017  c0-1.492-0.487-2.871-1.29-3.999l8.233-8.237c0.686 0.401 1.438 0.694 2.291 0.694c1.642 0 3.079-0.857 3.897-2.147l17.222 14.914  C61.609 59.699 61.07 61.022 61.07 62.474z M66 56.797c-1 0.1-1.135 0.273-1.596 0.502l-18.36-15.846  c0.002-0.052-0.023-0.102-0.023-0.154c0-1.485-0.718-2.802-1.806-3.646l5.799-12.428c0.046 0.002 0.088 0.007 0.134 0.007  c0.53 0 1.023-0.147 1.449-0.399l11.621 9.229c-0.151 0.415-0.113 0.861-0.113 1.328c0 1.757 0.895 3.238 2.895 3.715V56.797z" transform="matrix(1.542915034504116, 0, 0, 1.4906380696842143, -0.5801359411442357, 140.48003327301905)" data-uid="o_fea2f3b41_25"></path><path text="ByteBreezeWay" text-anchor="middle" font-size="50" letter-spacing="0" side="left" offset="0.5" dx="0" dy="0" space="preserve" href="" font-family="Montserrat" font-scale="contain" transform="matrix(0.7661141804788214, 0, 0, 0.7135951034446791, 330.8960670870861, 220.48040070251528)" x="0" y="0" fill="#3a3a3a" font-weight="700" data-fl-textpath="" id="_bACKzYL2clyS4dqlExFb0" data-uid="o_fea2f3b41_26" d="M-178.425-18.2Q-175.425-17.25 -173.725-15.03Q-172.025-12.8 -172.025-9.55L-172.025-9.55Q-172.025-4.95 -175.595-2.48Q-179.175 0 -186.025 0L-186.025 0L-204.125 0L-204.125-35L-187.025-35Q-180.625-35 -177.195-32.55Q-173.775-30.1 -173.775-25.9L-173.775-25.9Q-173.775-23.35 -175.005-21.35Q-176.225-19.35 -178.425-18.2L-178.425-18.2ZM-188.025-28.9L-196.075-28.9L-196.075-20.65L-188.025-20.65Q-185.025-20.65 -183.475-21.7Q-181.925-22.75 -181.925-24.8L-181.925-24.8Q-181.925-26.85 -183.475-27.88Q-185.025-28.9 -188.025-28.9L-188.025-28.9ZM-186.625-6.1Q-183.425-6.1 -181.795-7.15Q-180.175-8.2 -180.175-10.4L-180.175-10.4Q-180.175-14.75 -186.625-14.75L-186.625-14.75L-196.075-14.75L-196.075-6.1L-186.625-6.1ZM-147.225-26.9L-139.725-26.9L-151.875 1.65Q-153.725 6.3 -156.445 8.2Q-159.175 10.1 -163.025 10.1L-163.025 10.1Q-165.125 10.1 -167.175 9.45Q-169.225 8.8-170.525 7.65L-170.525 7.65L-167.675 2.1Q-166.775 2.9 -165.605 3.35Q-164.425 3.8 -163.275 3.8L-163.275 3.8Q-161.675 3.8 -160.675 3.03Q-159.675 2.25 -158.875 0.45L-158.875 0.45L-158.775 0.2L-170.425-26.9L-162.375-26.9L-154.825-8.65L-147.225-26.9ZM-120.525-6.8L-118.425-1.3Q-119.575-0.45 -121.245-0.03Q-122.925 0.4 -124.775 0.4L-124.775 0.4Q-129.575 0.4 -132.195-2.05Q-134.825-4.5 -134.825-9.25L-134.825-9.25L-134.825-20.3L-138.975-20.3L-138.975-26.3L-134.825-26.3L-134.825-32.85L-127.025-32.85L-127.025-26.3L-120.325-26.3L-120.325-20.3L-127.025-20.3L-127.025-9.35Q-127.025-7.65 -126.145-6.73Q-125.275-5.8 -123.675-5.8L-123.675-5.8Q-121.825-5.8 -120.525-6.8L-120.525-6.8ZM-88.525-13.35Q-88.525-13.2 -88.675-11.25L-88.675-11.25L-109.025-11.25Q-108.475-8.75 -106.425-7.3Q-104.375-5.85 -101.325-5.85L-101.325-5.85Q-99.225-5.85 -97.595-6.48Q-95.975-7.1 -94.575-8.45L-94.575-8.45L-90.425-3.95Q-94.225 0.4 -101.525 0.4L-101.525 0.4Q-106.075 0.4 -109.575-1.38Q-113.075-3.15 -114.975-6.3Q-116.875-9.45 -116.875-13.45L-116.875-13.45Q-116.875-17.4 -114.995-20.58Q-113.125-23.75 -109.845-25.53Q-106.575-27.3 -102.525-27.3L-102.525-27.3Q-98.575-27.3 -95.375-25.6Q-92.175-23.9 -90.345-20.73Q-88.525-17.55 -88.525-13.35L-88.525-13.35ZM-102.475-21.4Q-105.125-21.4 -106.925-19.9Q-108.725-18.4 -109.125-15.8L-109.125-15.8L-95.875-15.8Q-96.275-18.35 -98.075-19.88Q-99.875-21.4 -102.475-21.4L-102.475-21.4ZM-57.075-18.2Q-54.075-17.25 -52.375-15.03Q-50.675-12.8 -50.675-9.55L-50.675-9.55Q-50.675-4.95 -54.245-2.48Q-57.825 0 -64.675 0L-64.675 0L-82.775 0L-82.775-35L-65.675-35Q-59.275-35 -55.845-32.55Q-52.425-30.1 -52.425-25.9L-52.425-25.9Q-52.425-23.35 -53.655-21.35Q-54.875-19.35 -57.075-18.2L-57.075-18.2ZM-66.675-28.9L-74.725-28.9L-74.725-20.65L-66.675-20.65Q-63.675-20.65 -62.125-21.7Q-60.575-22.75 -60.575-24.8L-60.575-24.8Q-60.575-26.85 -62.125-27.88Q-63.675-28.9 -66.675-28.9L-66.675-28.9ZM-65.275-6.1Q-62.075-6.1 -60.445-7.15Q-58.825-8.2 -58.825-10.4L-58.825-10.4Q-58.825-14.75 -65.275-14.75L-65.275-14.75L-74.725-14.75L-74.725-6.1L-65.275-6.1ZM-37.625-23.35Q-36.225-25.3 -33.845-26.3Q-31.475-27.3 -28.375-27.3L-28.375-27.3L-28.375-20.1Q-29.675-20.2 -30.125-20.2L-30.125-20.2Q-33.475-20.2 -35.375-18.32Q-37.275-16.45 -37.275-12.7L-37.275-12.7L-37.275 0L-45.075 0L-45.075-26.9L-37.625-26.9L-37.625-23.35ZM 2.375-13.35Q 2.375-13.2  2.225-11.25L 2.225-11.25L-18.125-11.25Q-17.575-8.75 -15.525-7.3Q-13.475-5.85 -10.425-5.85L-10.425-5.85Q-8.325-5.85 -6.695-6.48Q-5.075-7.1 -3.675-8.45L-3.675-8.45L 0.475-3.95Q-3.325 0.4 -10.625 0.4L-10.625 0.4Q-15.175 0.4 -18.675-1.38Q-22.175-3.15 -24.075-6.3Q-25.975-9.45 -25.975-13.45L-25.975-13.45Q-25.975-17.4 -24.095-20.58Q-22.225-23.75 -18.945-25.53Q-15.675-27.3 -11.625-27.3L-11.625-27.3Q-7.675-27.3 -4.475-25.6Q-1.275-23.9  0.555-20.73Q 2.375-17.55  2.375-13.35L 2.375-13.35ZM-11.575-21.4Q-14.225-21.4 -16.025-19.9Q-17.825-18.4 -18.225-15.8L-18.225-15.8L-4.975-15.8Q-5.375-18.35 -7.175-19.88Q-8.975-21.4 -11.575-21.4L-11.575-21.4ZM 33.925-13.35Q 33.925-13.2  33.775-11.25L 33.775-11.25L 13.425-11.25Q 13.975-8.75  16.025-7.3Q 18.075-5.85  21.125-5.85L 21.125-5.85Q 23.225-5.85  24.855-6.48Q 26.475-7.1  27.875-8.45L 27.875-8.45L 32.025-3.95Q 28.225 0.4  20.925 0.4L 20.925 0.4Q 16.375 0.4  12.875-1.38Q 9.375-3.15  7.475-6.3Q 5.575-9.45  5.575-13.45L 5.575-13.45Q 5.575-17.4  7.455-20.58Q 9.325-23.75  12.605-25.53Q 15.875-27.3  19.925-27.3L 19.925-27.3Q 23.875-27.3  27.075-25.6Q 30.275-23.9  32.105-20.73Q 33.925-17.55  33.925-13.35L 33.925-13.35ZM 19.975-21.4Q 17.325-21.4  15.525-19.9Q 13.725-18.4  13.325-15.8L 13.325-15.8L 26.575-15.8Q 26.175-18.35  24.375-19.88Q 22.575-21.4  19.975-21.4L 19.975-21.4ZM 46.875-6L 61.025-6L 61.025 0L 37.025 0L 37.025-4.7L 50.725-20.9L 37.375-20.9L 37.375-26.9L 60.575-26.9L 60.575-22.2L 46.875-6ZM 92.025-13.35Q 92.025-13.2  91.875-11.25L 91.875-11.25L 71.525-11.25Q 72.075-8.75  74.125-7.3Q 76.175-5.85  79.225-5.85L 79.225-5.85Q 81.325-5.85  82.955-6.48Q 84.575-7.1  85.975-8.45L 85.975-8.45L 90.125-3.95Q 86.325 0.4  79.025 0.4L 79.025 0.4Q 74.475 0.4  70.975-1.38Q 67.475-3.15  65.575-6.3Q 63.675-9.45  63.675-13.45L 63.675-13.45Q 63.675-17.4  65.555-20.58Q 67.425-23.75  70.705-25.53Q 73.975-27.3  78.025-27.3L 78.025-27.3Q 81.975-27.3  85.175-25.6Q 88.375-23.9  90.205-20.73Q 92.025-17.55  92.025-13.35L 92.025-13.35ZM 78.075-21.4Q 75.425-21.4  73.625-19.9Q 71.825-18.4  71.425-15.8L 71.425-15.8L 84.675-15.8Q 84.275-18.35  82.475-19.88Q 80.675-21.4  78.075-21.4L 78.075-21.4ZM 141.925-35L 149.675-35L 138.225 0L 129.525 0L 121.825-23.7L 113.875 0L 105.225 0L 93.725-35L 102.125-35L 110.025-10.4L 118.275-35L 125.775-35L 133.775-10.2L 141.925-35ZM 162.475-27.3Q 168.725-27.3  172.075-24.33Q 175.425-21.35  175.425-15.35L 175.425-15.35L 175.425 0L 168.125 0L 168.125-3.35Q 165.925 0.4  159.925 0.4L 159.925 0.4Q 156.825 0.4  154.555-0.65Q 152.275-1.7  151.075-3.55Q 149.875-5.4  149.875-7.75L 149.875-7.75Q 149.875-11.5  152.695-13.65Q 155.525-15.8  161.425-15.8L 161.425-15.8L 167.625-15.8Q 167.625-18.35  166.075-19.73Q 164.525-21.1  161.425-21.1L 161.425-21.1Q 159.275-21.1  157.205-20.43Q 155.125-19.75  153.675-18.6L 153.675-18.6L 150.875-24.05Q 153.075-25.6  156.155-26.45Q 159.225-27.3  162.475-27.3L 162.475-27.3ZM 161.875-4.85Q 163.875-4.85  165.425-5.78Q 166.975-6.7  167.625-8.5L 167.625-8.5L 167.625-11.25L 162.275-11.25Q 157.475-11.25  157.475-8.1L 157.475-8.1Q 157.475-6.6  158.655-5.73Q 159.825-4.85  161.875-4.85L 161.875-4.85ZM 201.175-26.9L 208.675-26.9L 196.525 1.65Q 194.675 6.3  191.955 8.2Q 189.225 10.1  185.375 10.1L 185.375 10.1Q 183.275 10.1  181.225 9.45Q 179.175 8.8 177.875 7.65L 177.875 7.65L 180.725 2.1Q 181.625 2.9  182.795 3.35Q 183.975 3.8  185.125 3.8L 185.125 3.8Q 186.725 3.8  187.725 3.03Q 188.725 2.25  189.525 0.45L 189.525 0.45L 189.625 0.2L 177.975-26.9L 186.025-26.9L 193.575-8.65L 201.175-26.9Z"></path></svg>